<svg xmlns="http://www.w3.org/2000/svg" viewBox="0 0 200 200"><g id="Icons-Proposed"><g id="legislation"><g id="icon-text"><path d="M58.46,180v-1.37l1.22-.24v-8.16L58.46,170v-1.38h4.72V170l-1.22.23v8h3.21l.11-1.43H67V180Z" fill="#6c6c6c"/><path d="M71.94,180.16A3.8,3.8,0,0,1,69,179a4.2,4.2,0,0,1-1.09-3v-.31a4.6,4.6,0,0,1,1-3.1,3.86,3.86,0,0,1,5.43-.18,4,4,0,0,1,1,2.79v1.24h-5v.05a2.15,2.15,0,0,0,.56,1.37,1.73,1.73,0,0,0,1.34.54,4.43,4.43,0,0,0,1.26-.15,5.84,5.84,0,0,0,1.1-.48l.61,1.4a4.49,4.49,0,0,1-1.35.7A5.76,5.76,0,0,1,71.94,180.16Zm-.2-7a1.17,1.17,0,0,0-1,.49,2.41,2.41,0,0,0-.45,1.27l0,0h2.8v-.2a1.86,1.86,0,0,0-.34-1.16A1.23,1.23,0,0,0,71.74,173.14Z" fill="#6c6c6c"/><path d="M76.56,175.84a5.48,5.48,0,0,1,.87-3.23,2.83,2.83,0,0,1,2.44-1.22,2.44,2.44,0,0,1,1.25.31,2.72,2.72,0,0,1,.92.9l.17-1.06h2v8.21a3.49,3.49,0,0,1-1,2.66,4,4,0,0,1-2.89,1,5.66,5.66,0,0,1-1.36-.18,5.44,5.44,0,0,1-1.32-.48l.42-1.6a6.67,6.67,0,0,0,1.09.37,4.85,4.85,0,0,0,1.16.14,1.52,1.52,0,0,0,1.25-.51,2.21,2.21,0,0,0,.41-1.41v-.56a2.45,2.45,0,0,1-2,1A2.86,2.86,0,0,1,77.43,179a4.83,4.83,0,0,1-.87-3Zm2.28.16a3.48,3.48,0,0,0,.37,1.75,1.32,1.32,0,0,0,1.22.64,1.86,1.86,0,0,0,.89-.2,1.4,1.4,0,0,0,.58-.55V174a1.56,1.56,0,0,0-.58-.59,1.7,1.7,0,0,0-.87-.21,1.28,1.28,0,0,0-1.22.74,4.18,4.18,0,0,0-.39,1.94Z" fill="#6c6c6c"/><path d="M85.49,178.63l1.1-.24v-5.24l-1.22-.23v-1.38h3.5v6.85l1.09.24V180H85.49Zm3.38-9.11H86.59v-1.71h2.28Z" fill="#6c6c6c"/><path d="M97.61,174.45H96.08l-.24-1.06a2,2,0,0,0-.59-.31,2.47,2.47,0,0,0-.79-.12,1.53,1.53,0,0,0-.95.27.82.82,0,0,0-.35.67.76.76,0,0,0,.34.64,3.54,3.54,0,0,0,1.34.45,5.43,5.43,0,0,1,2.33.92,2,2,0,0,1,.76,1.66,2.24,2.24,0,0,1-1,1.87,4.29,4.29,0,0,1-2.59.72,5.38,5.38,0,0,1-1.79-.29,4.68,4.68,0,0,1-1.45-.81l0-1.9h1.59l.31,1.1a1.21,1.21,0,0,0,.56.25,2.92,2.92,0,0,0,.73.09,1.9,1.9,0,0,0,1.06-.25.79.79,0,0,0,0-1.33,4.06,4.06,0,0,0-1.35-.49,5.37,5.37,0,0,1-2.26-.9A2,2,0,0,1,91,174a2.35,2.35,0,0,1,.88-1.83,3.66,3.66,0,0,1,2.49-.77,6.34,6.34,0,0,1,1.86.27,3.7,3.7,0,0,1,1.38.68Z" fill="#6c6c6c"/><path d="M98.71,169.18v-1.37h3.5v10.58l1.1.24V180H98.82v-1.37l1.11-.24v-9Z" fill="#6c6c6c"/><path d="M109.43,180c-.06-.15-.11-.29-.16-.44a3.69,3.69,0,0,1-.11-.45,3,3,0,0,1-2.32,1,2.77,2.77,0,0,1-2-.68,2.37,2.37,0,0,1-.73-1.84,2.07,2.07,0,0,1,1-1.83,5,5,0,0,1,2.8-.65h1.16v-.83a1.25,1.25,0,0,0-.35-.94,1.43,1.43,0,0,0-1-.34,2.53,2.53,0,0,0-.7.09,2.06,2.06,0,0,0-.49.21l-.15.91h-1.71v-1.87a6,6,0,0,1,1.44-.71,5,5,0,0,1,1.76-.29,4,4,0,0,1,2.55.77,2.62,2.62,0,0,1,1,2.19v3.86l0,.32.7.1V180Zm-2-1.53a1.93,1.93,0,0,0,.93-.22,1.84,1.84,0,0,0,.66-.56V176.4h-1.16a1.56,1.56,0,0,0-1.1.34,1.08,1.08,0,0,0-.38.82.83.83,0,0,0,.28.67A1.13,1.13,0,0,0,107.46,178.47Z" fill="#6c6c6c"/><path d="M115.58,169.47v2.07h1.49v1.6h-1.49v4.31a1,1,0,0,0,.21.7.7.7,0,0,0,.54.21,2.55,2.55,0,0,0,.41,0l.4-.06.19,1.65a6.91,6.91,0,0,1-.76.17,5.13,5.13,0,0,1-.81.06,2.43,2.43,0,0,1-1.81-.65,2.82,2.82,0,0,1-.64-2v-4.32h-1.24v-1.6h1.24v-2.07Z" fill="#6c6c6c"/><path d="M118.11,178.63l1.1-.24v-5.24l-1.21-.23v-1.38h3.5v6.85l1.09.24V180h-4.48Zm3.39-9.11h-2.29v-1.71h2.29Z" fill="#6c6c6c"/><path d="M123.34,175.69a4.52,4.52,0,0,1,1.06-3.1,3.69,3.69,0,0,1,2.92-1.2,3.73,3.73,0,0,1,2.94,1.2,4.55,4.55,0,0,1,1.06,3.1v.16a4.54,4.54,0,0,1-1.06,3.11,4.18,4.18,0,0,1-5.86,0,4.5,4.5,0,0,1-1.06-3.11Zm2.28.16a3.69,3.69,0,0,0,.41,1.86,1.4,1.4,0,0,0,1.31.7,1.37,1.37,0,0,0,1.29-.7,3.61,3.61,0,0,0,.41-1.86v-.16a3.61,3.61,0,0,0-.41-1.84,1.41,1.41,0,0,0-1.31-.71,1.38,1.38,0,0,0-1.29.71,3.71,3.71,0,0,0-.41,1.84Z" fill="#6c6c6c"/><path d="M132.18,178.63l1.1-.24v-5.24l-1.21-.23v-1.38h3.33l.1,1.21a3.09,3.09,0,0,1,1-1,2.69,2.69,0,0,1,1.39-.36,2.54,2.54,0,0,1,2,.8,3.72,3.72,0,0,1,.71,2.52v3.68l1.1.24V180h-4.36v-1.37l1-.24v-3.67a1.71,1.71,0,0,0-.35-1.21,1.4,1.4,0,0,0-1-.35,1.79,1.79,0,0,0-.81.18,1.77,1.77,0,0,0-.6.52v4.53l.92.24V180h-4.3Z" fill="#6c6c6c"/></g><g id="icon-artwork"><path d="M85.94,94.45h28.18a1.51,1.51,0,0,0,1.69-1.26,1.57,1.57,0,0,0-1.24-1.78.8.8,0,0,1-.42-.51A14.53,14.53,0,0,0,105,79.45a1,1,0,0,1-.42-.66,17.25,17.25,0,0,1,0-1.77h-1.09c-.81,0-1.17-.38-1.17-1.19,0-1.5,0-3,0-4.51a2.55,2.55,0,0,1,.25-.66c.07-.2.23-.45.17-.6a.8.8,0,0,0-.54-.34,6.83,6.83,0,0,0-1,0c0-1.92,0-1.64,0-3.46,0-.2-.43-.3-.92-.33v-.36a.31.31,0,0,0,.26-.32c0-.13.19-.1.14-.37s-.11-2.25-.19-2.36-.26-.06-.26-.06a.28.28,0,0,1,0-.23s.07,0,.06-.11,0-.4-.31-.39-.33.24-.33.43.06.08.08.13a.34.34,0,0,1,0,.16.46.46,0,0,1-.13.24.89.89,0,0,0-.21.22c0,.07,0,1.52,0,2.06,0,.2.16.28.16.32a.24.24,0,0,0,.17.24v.42c-.45,0-.83.14-.83.31v3.46a6.71,6.71,0,0,0-1,0,.82.82,0,0,0-.54.34c-.06.15.11.4.18.6a2.51,2.51,0,0,1,.24.66c0,1.53,0,3.06,0,4.58A1,1,0,0,1,96.62,77H95.5c0,.06,0,1.82,0,1.88,0,.4-.58.53-.88.67A16.14,16.14,0,0,0,85.9,90.68c-.07.42-.14.7-.65.81A1.37,1.37,0,0,0,84.18,93C84.19,93.88,84.84,94.44,85.94,94.45ZM99.57,72.58c0-.18.28-.35.42-.53.15.17.4.33.42.52a12,12,0,0,1,0,1.47,14.42,14.42,0,0,1,0,1.47c0,.17-.25.33-.38.49-.16-.16-.45-.31-.46-.48C99.53,74.54,99.53,73.56,99.57,72.58Z" fill="#6c6c6c"/><path d="M122.25,107.82a1.1,1.1,0,0,0-1.06-1,4,4,0,0,0-.49,0H79a1.13,1.13,0,0,0-1.23.94,1,1,0,0,0,.75,1.33c.43.13.38.4.38.7v9.89H80.1v-2.64c0-2.12,0-4.23,0-6.34a1.44,1.44,0,1,1,2.88-.09,5.42,5.42,0,0,1,0,.57V119c0,.22,0,.45,0,.67h2.34v-4.13c0-1.62,0-3.25,0-4.87a1.41,1.41,0,0,1,1.46-1.47,1.45,1.45,0,0,1,1.44,1.44c0,.3,0,.61,0,.91v8.14h2.36v-1c0-2.61,0-5.22,0-7.82,0-1.08.59-1.69,1.48-1.66s1.4.64,1.4,1.68v8.8H95.9V119c0-2.7,0-5.41,0-8.11a1.48,1.48,0,0,1,1.43-1.65,1.5,1.5,0,0,1,1.48,1.69q0,3.24,0,6.48v2.32h2.37v-8.79c0-1,.57-1.7,1.46-1.7s1.44.67,1.44,1.71v8.78h2.39v-.88q0-4,0-8a1.42,1.42,0,0,1,1.36-1.57,1.44,1.44,0,0,1,1.52,1.62c0,2.68,0,5.36,0,8v.81h2.36v-4.14c0-1.57,0-3.15,0-4.72a1.46,1.46,0,1,1,2.91,0c0,.31,0,.61,0,.92,0,2.42,0,4.84,0,7.26v.73H117v-8.55c0-.17,0-.33,0-.5a1.44,1.44,0,0,1,1.41-1.45,1.42,1.42,0,0,1,1.47,1.47c0,2.75,0,5.5,0,8.24v.77h1.22v-.83q0-4.5,0-9c0-.38,0-.63.48-.77A1,1,0,0,0,122.25,107.82Z" fill="#6c6c6c"/><path d="M81,99.07c.6.21.58.59.58,1.07,0,1.92,0,3.84,0,5.81H83v-4.9c0-1,.44-1.51,1.19-1.5s1.12.56,1.12,1.49,0,2.11,0,3.17V106h3v-.74c0-1.39,0-2.77,0-4.16v-.28a1.15,1.15,0,0,1,1.17-1.22,1.12,1.12,0,0,1,1.12,1.19c0,1.55,0,3.1,0,4.65,0,.2.22.56.36.57.84,0,1.68,0,2.58,0,0-1.78,0-3.46,0-5.15a1.17,1.17,0,1,1,2.32,0c0,1.15,0,2.3,0,3.45v1.65h2.93c0-.21,0-.35,0-.49,0-1.55,0-3.1,0-4.65A1.15,1.15,0,0,1,100,99.55a1.18,1.18,0,0,1,1.15,1.26c0,.54,0,1.08,0,1.62V106h2.95v-3.68c0-.54,0-1.09,0-1.62a1.16,1.16,0,0,1,2.31,0,5.45,5.45,0,0,1,0,.7v4.57h3c0-1.74,0-3.41,0-5.07a1.17,1.17,0,0,1,1.15-1.31,1.19,1.19,0,0,1,1.14,1.33c0,.33,0,.66,0,1V106h2.92c0-.25,0-.45,0-.66,0-1.45,0-2.91,0-4.37,0-.84.46-1.38,1.16-1.38s1.14.55,1.15,1.4,0,1.5,0,2.26v2.73h1.5V99.36a1.21,1.21,0,0,1,.16-.1c.82-.34,1.12-.78,1-1.47s-.59-.9-1.4-.91h-1l-.07-1.4H82.84v1.41c-.54,0-1,0-1.43,0a1.07,1.07,0,0,0-1,.93A1,1,0,0,0,81,99.07Z" fill="#6c6c6c"/><path d="M104.38,42.23H57.75a1.63,1.63,0,0,1,0-3.25h46.63a1.63,1.63,0,1,1,0,3.25Z" fill="#6c6c6c"/><path d="M140.36,55.4H57.75a1.63,1.63,0,0,1,0-3.25h82.61a1.63,1.63,0,1,1,0,3.25Z" fill="#6c6c6c"/><path d="M140.86,129.85H57a1.62,1.62,0,0,1,0-3.24h83.9a1.62,1.62,0,1,1,0,3.24Z" fill="#6c6c6c"/><path d="M140.86,143H57a1.62,1.62,0,1,1,0-3.24h83.9a1.62,1.62,0,1,1,0,3.24Z" fill="#6c6c6c"/><path d="M153.86,20.51H46.14a1.63,1.63,0,0,0-1.63,1.63V155.86a1.63,1.63,0,0,0,1.63,1.63H153.86a1.63,1.63,0,0,0,1.63-1.63V22.14A1.63,1.63,0,0,0,153.86,20.51Zm-1.62,133.73H47.76V23.76H132.4V45.55l7.38-6.12,7.39,6.12V23.76h5.07Z" fill="#6c6c6c"/></g></g></g></svg>
